<svg width="368" height="255" viewBox="0 0 368 255" fill="none" xmlns="http://www.w3.org/2000/svg">
<rect y="188" width="368" height="1" fill="#EDF2F6"/>
<path d="M227.328 242.16C227.225 241.731 227.039 241.409 226.768 241.194C226.497 240.979 226.119 240.872 225.634 240.872C224.897 240.872 224.346 241.157 223.982 241.726C223.618 242.286 223.427 243.219 223.408 244.526C223.651 244.115 224.005 243.798 224.472 243.574C224.939 243.35 225.443 243.238 225.984 243.238C226.6 243.238 227.141 243.373 227.608 243.644C228.084 243.905 228.453 244.288 228.714 244.792C228.985 245.296 229.12 245.898 229.12 246.598C229.12 247.251 228.989 247.835 228.728 248.348C228.476 248.861 228.098 249.267 227.594 249.566C227.09 249.855 226.483 250 225.774 250C224.813 250 224.057 249.79 223.506 249.37C222.965 248.941 222.582 248.339 222.358 247.564C222.143 246.789 222.036 245.823 222.036 244.666C222.036 241.25 223.24 239.542 225.648 239.542C226.581 239.542 227.314 239.794 227.846 240.298C228.387 240.802 228.705 241.423 228.798 242.16H227.328ZM225.634 244.582C225.065 244.582 224.579 244.755 224.178 245.1C223.786 245.436 223.59 245.926 223.59 246.57C223.59 247.214 223.772 247.727 224.136 248.11C224.509 248.483 225.027 248.67 225.69 248.67C226.278 248.67 226.74 248.488 227.076 248.124C227.421 247.76 227.594 247.275 227.594 246.668C227.594 246.033 227.426 245.529 227.09 245.156C226.763 244.773 226.278 244.582 225.634 244.582ZM230.794 242.314C230.85 241.446 231.182 240.769 231.788 240.284C232.404 239.799 233.188 239.556 234.14 239.556C234.794 239.556 235.358 239.673 235.834 239.906C236.31 240.139 236.67 240.457 236.912 240.858C237.155 241.259 237.276 241.712 237.276 242.216C237.276 242.795 237.122 243.289 236.814 243.7C236.506 244.111 236.138 244.386 235.708 244.526V244.582C236.259 244.75 236.688 245.058 236.996 245.506C237.304 245.945 237.458 246.509 237.458 247.2C237.458 247.751 237.332 248.241 237.08 248.67C236.828 249.099 236.455 249.44 235.96 249.692C235.466 249.935 234.873 250.056 234.182 250.056C233.174 250.056 232.344 249.799 231.69 249.286C231.046 248.763 230.701 248.017 230.654 247.046H232.194C232.232 247.541 232.423 247.947 232.768 248.264C233.114 248.572 233.58 248.726 234.168 248.726C234.738 248.726 235.176 248.572 235.484 248.264C235.792 247.947 235.946 247.541 235.946 247.046C235.946 246.393 235.736 245.931 235.316 245.66C234.906 245.38 234.271 245.24 233.412 245.24H233.048V243.924H233.426C234.182 243.915 234.756 243.789 235.148 243.546C235.55 243.303 235.75 242.921 235.75 242.398C235.75 241.95 235.606 241.595 235.316 241.334C235.027 241.063 234.616 240.928 234.084 240.928C233.562 240.928 233.156 241.063 232.866 241.334C232.577 241.595 232.404 241.922 232.348 242.314H230.794ZM245.715 241.166H241.025V243.952C241.221 243.691 241.51 243.471 241.893 243.294C242.285 243.117 242.7 243.028 243.139 243.028C243.923 243.028 244.558 243.196 245.043 243.532C245.538 243.868 245.888 244.293 246.093 244.806C246.308 245.319 246.415 245.861 246.415 246.43C246.415 247.121 246.28 247.737 246.009 248.278C245.748 248.81 245.351 249.23 244.819 249.538C244.296 249.846 243.652 250 242.887 250C241.87 250 241.053 249.748 240.437 249.244C239.821 248.74 239.452 248.073 239.331 247.242H240.885C240.988 247.681 241.216 248.031 241.571 248.292C241.926 248.544 242.369 248.67 242.901 248.67C243.564 248.67 244.058 248.469 244.385 248.068C244.721 247.667 244.889 247.135 244.889 246.472C244.889 245.8 244.721 245.287 244.385 244.932C244.049 244.568 243.554 244.386 242.901 244.386C242.444 244.386 242.056 244.503 241.739 244.736C241.431 244.96 241.207 245.268 241.067 245.66H239.555V239.766H245.715V241.166Z" fill="#222B45"/>
<path d="M221 251.4H247.241V252.1H221V251.4Z" fill="#222B45"/>
<path d="M225.768 226.112C225.032 226.112 224.371 225.984 223.784 225.728C223.208 225.461 222.755 225.099 222.424 224.64C222.093 224.171 221.923 223.632 221.912 223.024H223.464C223.517 223.547 223.731 223.989 224.104 224.352C224.488 224.704 225.043 224.88 225.768 224.88C226.461 224.88 227.005 224.709 227.4 224.368C227.805 224.016 228.008 223.568 228.008 223.024C228.008 222.597 227.891 222.251 227.656 221.984C227.421 221.717 227.128 221.515 226.776 221.376C226.424 221.237 225.949 221.088 225.352 220.928C224.616 220.736 224.024 220.544 223.576 220.352C223.139 220.16 222.76 219.861 222.44 219.456C222.131 219.04 221.976 218.485 221.976 217.792C221.976 217.184 222.131 216.645 222.44 216.176C222.749 215.707 223.181 215.344 223.736 215.088C224.301 214.832 224.947 214.704 225.672 214.704C226.717 214.704 227.571 214.965 228.232 215.488C228.904 216.011 229.283 216.704 229.368 217.568H227.768C227.715 217.141 227.491 216.768 227.096 216.448C226.701 216.117 226.179 215.952 225.528 215.952C224.92 215.952 224.424 216.112 224.04 216.432C223.656 216.741 223.464 217.179 223.464 217.744C223.464 218.149 223.576 218.48 223.8 218.736C224.035 218.992 224.317 219.189 224.648 219.328C224.989 219.456 225.464 219.605 226.072 219.776C226.808 219.979 227.4 220.181 227.848 220.384C228.296 220.576 228.68 220.88 229 221.296C229.32 221.701 229.48 222.256 229.48 222.96C229.48 223.504 229.336 224.016 229.048 224.496C228.76 224.976 228.333 225.365 227.768 225.664C227.203 225.963 226.536 226.112 225.768 226.112ZM239.623 221.28C239.623 221.557 239.607 221.851 239.575 222.16H232.567C232.62 223.024 232.913 223.701 233.447 224.192C233.991 224.672 234.647 224.912 235.415 224.912C236.044 224.912 236.567 224.768 236.983 224.48C237.409 224.181 237.708 223.787 237.879 223.296H239.447C239.212 224.139 238.743 224.827 238.039 225.36C237.335 225.883 236.46 226.144 235.415 226.144C234.583 226.144 233.836 225.957 233.175 225.584C232.524 225.211 232.012 224.683 231.639 224C231.265 223.307 231.079 222.507 231.079 221.6C231.079 220.693 231.26 219.899 231.623 219.216C231.985 218.533 232.492 218.011 233.143 217.648C233.804 217.275 234.561 217.088 235.415 217.088C236.247 217.088 236.983 217.269 237.623 217.632C238.263 217.995 238.753 218.496 239.095 219.136C239.447 219.765 239.623 220.48 239.623 221.28ZM238.119 220.976C238.119 220.421 237.996 219.947 237.751 219.552C237.505 219.147 237.169 218.843 236.743 218.64C236.327 218.427 235.863 218.32 235.351 218.32C234.615 218.32 233.985 218.555 233.463 219.024C232.951 219.493 232.657 220.144 232.583 220.976H238.119ZM243.001 218.656C243.257 218.155 243.619 217.765 244.089 217.488C244.569 217.211 245.15 217.072 245.833 217.072V218.576H245.449C243.817 218.576 243.001 219.461 243.001 221.232V226H241.545V217.232H243.001V218.656ZM250.777 224.656L253.497 217.232H255.049L251.609 226H249.913L246.473 217.232H248.041L250.777 224.656ZM257.234 215.808C256.957 215.808 256.722 215.712 256.53 215.52C256.338 215.328 256.242 215.093 256.242 214.816C256.242 214.539 256.338 214.304 256.53 214.112C256.722 213.92 256.957 213.824 257.234 213.824C257.501 213.824 257.725 213.92 257.906 214.112C258.098 214.304 258.194 214.539 258.194 214.816C258.194 215.093 258.098 215.328 257.906 215.52C257.725 215.712 257.501 215.808 257.234 215.808ZM257.938 217.232V226H256.482V217.232H257.938ZM259.876 221.6C259.876 220.693 260.057 219.904 260.42 219.232C260.782 218.549 261.284 218.021 261.924 217.648C262.574 217.275 263.316 217.088 264.148 217.088C265.225 217.088 266.11 217.349 266.804 217.872C267.508 218.395 267.972 219.12 268.196 220.048H266.628C266.478 219.515 266.185 219.093 265.748 218.784C265.321 218.475 264.788 218.32 264.148 218.32C263.316 218.32 262.644 218.608 262.132 219.184C261.62 219.749 261.364 220.555 261.364 221.6C261.364 222.656 261.62 223.472 262.132 224.048C262.644 224.624 263.316 224.912 264.148 224.912C264.788 224.912 265.321 224.763 265.748 224.464C266.174 224.165 266.468 223.739 266.628 223.184H268.196C267.961 224.08 267.492 224.8 266.788 225.344C266.084 225.877 265.204 226.144 264.148 226.144C263.316 226.144 262.574 225.957 261.924 225.584C261.284 225.211 260.782 224.683 260.42 224C260.057 223.317 259.876 222.517 259.876 221.6ZM278.138 221.28C278.138 221.557 278.122 221.851 278.09 222.16H271.082C271.136 223.024 271.429 223.701 271.962 224.192C272.506 224.672 273.162 224.912 273.93 224.912C274.56 224.912 275.082 224.768 275.498 224.48C275.925 224.181 276.224 223.787 276.394 223.296H277.962C277.728 224.139 277.258 224.827 276.554 225.36C275.85 225.883 274.976 226.144 273.93 226.144C273.098 226.144 272.352 225.957 271.69 225.584C271.04 225.211 270.528 224.683 270.154 224C269.781 223.307 269.594 222.507 269.594 221.6C269.594 220.693 269.776 219.899 270.138 219.216C270.501 218.533 271.008 218.011 271.658 217.648C272.32 217.275 273.077 217.088 273.93 217.088C274.762 217.088 275.498 217.269 276.138 217.632C276.778 217.995 277.269 218.496 277.61 219.136C277.962 219.765 278.138 220.48 278.138 221.28ZM276.634 220.976C276.634 220.421 276.512 219.947 276.266 219.552C276.021 219.147 275.685 218.843 275.258 218.64C274.842 218.427 274.378 218.32 273.866 218.32C273.13 218.32 272.501 218.555 271.978 219.024C271.466 219.493 271.173 220.144 271.098 220.976H276.634ZM283.164 226.144C282.492 226.144 281.889 226.032 281.356 225.808C280.823 225.573 280.401 225.253 280.092 224.848C279.783 224.432 279.612 223.957 279.58 223.424H281.084C281.127 223.861 281.329 224.219 281.692 224.496C282.065 224.773 282.551 224.912 283.148 224.912C283.703 224.912 284.14 224.789 284.46 224.544C284.78 224.299 284.94 223.989 284.94 223.616C284.94 223.232 284.769 222.949 284.428 222.768C284.087 222.576 283.559 222.389 282.844 222.208C282.193 222.037 281.66 221.867 281.244 221.696C280.839 221.515 280.487 221.253 280.188 220.912C279.9 220.56 279.756 220.101 279.756 219.536C279.756 219.088 279.889 218.677 280.156 218.304C280.423 217.931 280.801 217.637 281.292 217.424C281.783 217.2 282.343 217.088 282.972 217.088C283.943 217.088 284.727 217.333 285.324 217.824C285.921 218.315 286.241 218.987 286.284 219.84H284.828C284.796 219.381 284.609 219.013 284.268 218.736C283.937 218.459 283.489 218.32 282.924 218.32C282.401 218.32 281.985 218.432 281.676 218.656C281.367 218.88 281.212 219.173 281.212 219.536C281.212 219.824 281.303 220.064 281.484 220.256C281.676 220.437 281.911 220.587 282.188 220.704C282.476 220.811 282.871 220.933 283.372 221.072C284.001 221.243 284.513 221.413 284.908 221.584C285.303 221.744 285.639 221.989 285.916 222.32C286.204 222.651 286.353 223.083 286.364 223.616C286.364 224.096 286.231 224.528 285.964 224.912C285.697 225.296 285.319 225.6 284.828 225.824C284.348 226.037 283.793 226.144 283.164 226.144Z" fill="#96A5B8"/>
<path d="M221 227.6H287.18V228.4H221V227.6Z" fill="#96A5B8"/>
<rect x="201" y="215" width="10" height="10" rx="5" fill="#00E096"/>
<path d="M98.63 241.25V239.794H101.542V250H99.932V241.25H98.63ZM105.695 248.082L104.001 251.946H102.965L103.959 248.082H105.695ZM106.669 241.25V239.794H109.581V250H107.971V241.25H106.669ZM111.746 242.314C111.802 241.446 112.133 240.769 112.74 240.284C113.356 239.799 114.14 239.556 115.092 239.556C115.745 239.556 116.31 239.673 116.786 239.906C117.262 240.139 117.621 240.457 117.864 240.858C118.106 241.259 118.228 241.712 118.228 242.216C118.228 242.795 118.074 243.289 117.766 243.7C117.458 244.111 117.089 244.386 116.66 244.526V244.582C117.21 244.75 117.64 245.058 117.948 245.506C118.256 245.945 118.41 246.509 118.41 247.2C118.41 247.751 118.284 248.241 118.032 248.67C117.78 249.099 117.406 249.44 116.912 249.692C116.417 249.935 115.824 250.056 115.134 250.056C114.126 250.056 113.295 249.799 112.642 249.286C111.998 248.763 111.652 248.017 111.606 247.046H113.146C113.183 247.541 113.374 247.947 113.72 248.264C114.065 248.572 114.532 248.726 115.12 248.726C115.689 248.726 116.128 248.572 116.436 248.264C116.744 247.947 116.898 247.541 116.898 247.046C116.898 246.393 116.688 245.931 116.268 245.66C115.857 245.38 115.222 245.24 114.364 245.24H114V243.924H114.378C115.134 243.915 115.708 243.789 116.1 243.546C116.501 243.303 116.702 242.921 116.702 242.398C116.702 241.95 116.557 241.595 116.268 241.334C115.978 241.063 115.568 240.928 115.036 240.928C114.513 240.928 114.107 241.063 113.818 241.334C113.528 241.595 113.356 241.922 113.3 242.314H111.746ZM126.666 241.166H121.976V243.952C122.172 243.691 122.461 243.471 122.844 243.294C123.236 243.117 123.651 243.028 124.09 243.028C124.874 243.028 125.509 243.196 125.994 243.532C126.489 243.868 126.839 244.293 127.044 244.806C127.259 245.319 127.366 245.861 127.366 246.43C127.366 247.121 127.231 247.737 126.96 248.278C126.699 248.81 126.302 249.23 125.77 249.538C125.247 249.846 124.603 250 123.838 250C122.821 250 122.004 249.748 121.388 249.244C120.772 248.74 120.403 248.073 120.282 247.242H121.836C121.939 247.681 122.167 248.031 122.522 248.292C122.877 248.544 123.32 248.67 123.852 248.67C124.515 248.67 125.009 248.469 125.336 248.068C125.672 247.667 125.84 247.135 125.84 246.472C125.84 245.8 125.672 245.287 125.336 244.932C125 244.568 124.505 244.386 123.852 244.386C123.395 244.386 123.007 244.503 122.69 244.736C122.382 244.96 122.158 245.268 122.018 245.66H120.506V239.766H126.666V241.166Z" fill="#222B45"/>
<path d="M98 251.4H128.192V252.1H98V251.4Z" fill="#222B45"/>
<path d="M108.448 214.848L104.24 226H102.56L98.352 214.848H99.904L103.408 224.464L106.912 214.848H108.448ZM113.869 226.144C113.047 226.144 112.301 225.957 111.629 225.584C110.967 225.211 110.445 224.683 110.061 224C109.687 223.307 109.501 222.507 109.501 221.6C109.501 220.704 109.693 219.915 110.077 219.232C110.471 218.539 111.005 218.011 111.677 217.648C112.349 217.275 113.101 217.088 113.933 217.088C114.765 217.088 115.517 217.275 116.189 217.648C116.861 218.011 117.389 218.533 117.773 219.216C118.167 219.899 118.365 220.693 118.365 221.6C118.365 222.507 118.162 223.307 117.757 224C117.362 224.683 116.823 225.211 116.141 225.584C115.458 225.957 114.701 226.144 113.869 226.144ZM113.869 224.864C114.391 224.864 114.882 224.741 115.341 224.496C115.799 224.251 116.167 223.883 116.445 223.392C116.733 222.901 116.877 222.304 116.877 221.6C116.877 220.896 116.738 220.299 116.461 219.808C116.183 219.317 115.821 218.955 115.373 218.72C114.925 218.475 114.439 218.352 113.917 218.352C113.383 218.352 112.893 218.475 112.445 218.72C112.007 218.955 111.655 219.317 111.389 219.808C111.122 220.299 110.989 220.896 110.989 221.6C110.989 222.315 111.117 222.917 111.373 223.408C111.639 223.899 111.991 224.267 112.429 224.512C112.866 224.747 113.346 224.864 113.869 224.864ZM121.735 214.16V226H120.279V214.16H121.735ZM131.992 217.232V226H130.536V224.704C130.259 225.152 129.87 225.504 129.368 225.76C128.878 226.005 128.334 226.128 127.736 226.128C127.054 226.128 126.44 225.989 125.896 225.712C125.352 225.424 124.92 224.997 124.6 224.432C124.291 223.867 124.136 223.179 124.136 222.368V217.232H125.576V222.176C125.576 223.04 125.795 223.707 126.232 224.176C126.67 224.635 127.267 224.864 128.024 224.864C128.803 224.864 129.416 224.624 129.864 224.144C130.312 223.664 130.536 222.965 130.536 222.048V217.232H131.992ZM144.995 217.072C145.677 217.072 146.285 217.216 146.819 217.504C147.352 217.781 147.773 218.203 148.083 218.768C148.392 219.333 148.547 220.021 148.547 220.832V226H147.107V221.04C147.107 220.165 146.888 219.499 146.451 219.04C146.024 218.571 145.443 218.336 144.707 218.336C143.949 218.336 143.347 218.581 142.899 219.072C142.451 219.552 142.227 220.251 142.227 221.168V226H140.787V221.04C140.787 220.165 140.568 219.499 140.131 219.04C139.704 218.571 139.123 218.336 138.387 218.336C137.629 218.336 137.027 218.581 136.579 219.072C136.131 219.552 135.907 220.251 135.907 221.168V226H134.451V217.232H135.907V218.496C136.195 218.037 136.579 217.685 137.059 217.44C137.549 217.195 138.088 217.072 138.675 217.072C139.411 217.072 140.061 217.237 140.627 217.568C141.192 217.899 141.613 218.384 141.891 219.024C142.136 218.405 142.541 217.925 143.107 217.584C143.672 217.243 144.301 217.072 144.995 217.072ZM158.935 221.28C158.935 221.557 158.919 221.851 158.887 222.16H151.879C151.932 223.024 152.226 223.701 152.759 224.192C153.303 224.672 153.959 224.912 154.727 224.912C155.356 224.912 155.879 224.768 156.295 224.48C156.722 224.181 157.02 223.787 157.191 223.296H158.759C158.524 224.139 158.055 224.827 157.351 225.36C156.647 225.883 155.772 226.144 154.727 226.144C153.895 226.144 153.148 225.957 152.487 225.584C151.836 225.211 151.324 224.683 150.951 224C150.578 223.307 150.391 222.507 150.391 221.6C150.391 220.693 150.572 219.899 150.935 219.216C151.298 218.533 151.804 218.011 152.455 217.648C153.116 217.275 153.874 217.088 154.727 217.088C155.559 217.088 156.295 217.269 156.935 217.632C157.575 217.995 158.066 218.496 158.407 219.136C158.759 219.765 158.935 220.48 158.935 221.28ZM157.431 220.976C157.431 220.421 157.308 219.947 157.063 219.552C156.818 219.147 156.482 218.843 156.055 218.64C155.639 218.427 155.175 218.32 154.663 218.32C153.927 218.32 153.298 218.555 152.775 219.024C152.263 219.493 151.97 220.144 151.895 220.976H157.431Z" fill="#96A5B8"/>
<path d="M98 227.6H159.623V228.4H98V227.6Z" fill="#96A5B8"/>
<rect x="78" y="215" width="10" height="10" rx="5" fill="#0095FF"/>
<rect x="180" y="211" width="1" height="24" fill="#BDC9D3"/>
<rect x="45" y="29.1428" width="12" height="138.857" rx="2" fill="#0095FF"/>
<rect x="45" y="89.1428" width="12" height="78.8571" rx="2" fill="#00E096"/>
<rect x="149" y="29.1428" width="12" height="138.857" rx="2" fill="#0095FF"/>
<rect x="149" y="132" width="12" height="36" rx="2" fill="#00E096"/>
<rect x="253" y="72" width="12" height="96" rx="2" fill="#0095FF"/>
<rect x="253" y="132" width="12" height="36" rx="2" fill="#00E096"/>
<rect x="305" y="63.4286" width="12" height="104.571" rx="2" fill="#0095FF"/>
<rect x="305" y="106.286" width="12" height="61.7143" rx="2" fill="#00E096"/>
<rect x="201" y="42.8572" width="12" height="125.143" rx="2" fill="#0095FF"/>
<rect x="201" y="126.857" width="12" height="41.1429" rx="2" fill="#00E096"/>
<rect x="97" width="12" height="168" rx="2" fill="#0095FF"/>
<rect x="97" y="78.8571" width="12" height="89.1429" rx="2" fill="#00E096"/>
</svg>
